<?xml version="1.0" encoding="utf-8"?>
<!-- Generator: Adobe Illustrator 24.3.0, SVG Export Plug-In . SVG Version: 6.00 Build 0)  -->
<svg version="1.1" id="Layer_1" xmlns="http://www.w3.org/2000/svg" xmlns:xlink="http://www.w3.org/1999/xlink" x="0px" y="0px"
	 viewBox="0 0 640 640" style="enable-background:new 0 0 640 640;" xml:space="preserve">
<style type="text/css">
	.st0{fill:#5DA845;}
	.st1{fill:#333333;}
	.st2{fill:#FFFFFF;}
</style>
<path class="st0" d="M1491.44,960.5L1491.44,960.5c-177.01,0-320.5-143.49-320.5-320.5v0c0-177.01,143.49-320.5,320.5-320.5h0
	c177.01,0,320.5,143.49,320.5,320.5v0C1811.94,817.01,1668.44,960.5,1491.44,960.5z"/>
<path class="st1" d="M1428.1,504.83h-61.7v-61.7c0-14.59-11.83-26.43-26.43-26.43c-14.59,0-26.43,11.83-26.43,26.43v61.7h-61.7
	c-14.59,0-26.43,11.83-26.43,26.43c0,14.59,11.83,26.43,26.43,26.43h61.7v61.7c0,14.59,11.83,26.43,26.43,26.43
	c14.6,0,26.43-11.83,26.43-26.43v-61.7h61.7c14.59,0,26.43-11.83,26.43-26.43C1454.53,516.67,1442.7,504.83,1428.1,504.83z"/>
<path class="st1" d="M1731.99,732.65h-176.24c-14.59,0-26.43,11.83-26.43,26.43c0,14.59,11.83,26.43,26.43,26.43h176.24
	c14.59,0,26.43-11.83,26.43-26.43C1758.42,744.48,1746.59,732.65,1731.99,732.65z"/>
<path class="st1" d="M1635.6,470.6L1309,797.2c-10.32,10.32-10.32,27.05,0,37.37c10.32,10.32,27.05,10.32,37.37,0l326.6-326.6
	c10.32-10.32,10.32-27.05,0-37.37C1662.65,460.28,1645.92,460.28,1635.6,470.6z"/>
<path class="st2" d="M318.08,31.86c38.29,0,75.41,7.49,110.34,22.26c33.75,14.28,64.08,34.72,90.12,60.77
	c26.05,26.05,46.49,56.37,60.77,90.13c14.77,34.93,22.26,72.05,22.26,110.34c0,38.29-7.49,75.41-22.26,110.34
	c-14.28,33.75-34.72,64.08-60.77,90.13c-26.05,26.05-56.37,46.49-90.13,60.77c-34.93,14.77-72.05,22.26-110.34,22.26
	c-38.29,0-75.41-7.49-110.34-22.26c-33.75-14.28-64.08-34.72-90.13-60.77c-26.05-26.05-46.49-56.37-60.77-90.13
	c-14.77-34.93-22.26-72.05-22.26-110.34c0-38.29,7.49-75.41,22.26-110.34c14.28-33.75,34.72-64.08,60.77-90.13
	c26.05-26.05,56.37-46.49,90.13-60.77C242.66,39.35,279.79,31.86,318.08,31.86 M318.08-5.14L318.08-5.14
	c-177.01,0-320.5,143.49-320.5,320.5v0c0,177.01,143.49,320.5,320.5,320.5h0c177.01,0,320.5-143.49,320.5-320.5v0
	C638.58,138.35,495.08-5.14,318.08-5.14L318.08-5.14z"/>
<path class="st2" d="M264.72,199.67h-52.06v-52.05c0-12.31-9.98-22.3-22.3-22.3c-12.31,0-22.3,9.98-22.3,22.3v52.05h-52.05
	c-12.31,0-22.3,9.98-22.3,22.3c0,12.31,9.98,22.3,22.3,22.3h52.05v52.05c0,12.31,9.98,22.3,22.3,22.3c12.32,0,22.3-9.98,22.3-22.3
	v-52.05h52.06c12.31,0,22.3-9.98,22.3-22.3C287.01,209.66,277.03,199.67,264.72,199.67z"/>
<path class="st2" d="M521.12,391.89h-148.7c-12.31,0-22.3,9.98-22.3,22.3c0,12.31,9.98,22.3,22.3,22.3h148.7
	c12.31,0,22.3-9.98,22.3-22.3C543.42,401.87,533.43,391.89,521.12,391.89z"/>
<path class="st2" d="M567.07,43.51L36.94,573.63c-8.71,8.71-8.71,22.83,0,31.53c8.71,8.71,22.83,8.71,31.53,0L598.6,75.04
	c8.71-8.71,8.71-22.82,0-31.53C589.89,34.8,575.77,34.8,567.07,43.51z"/>
<g>
	<path class="st2" d="M1909.75-608.86h-68.48v-68.48c0-16.2-13.13-29.33-29.33-29.33c-16.2,0-29.33,13.13-29.33,29.33v68.48h-68.48
		c-16.2,0-29.33,13.13-29.33,29.33c0,16.2,13.13,29.33,29.33,29.33h68.48v68.48c0,16.2,13.13,29.33,29.33,29.33
		c16.2,0,29.33-13.13,29.33-29.33v-68.48h68.48c16.2,0,29.33-13.13,29.33-29.33C1939.08-595.73,1925.95-608.86,1909.75-608.86z"/>
	<path class="st2" d="M2247.07-355.99h-195.63c-16.2,0-29.33,13.13-29.33,29.33c0,16.2,13.13,29.33,29.33,29.33h195.63
		c16.2,0,29.33-13.13,29.33-29.33C2276.4-342.86,2263.27-355.99,2247.07-355.99z"/>
	<path class="st2" d="M2140.07-646.86l-362.53,362.53c-11.45,11.45-11.46,30.03,0,41.48c11.46,11.45,30.03,11.45,41.48,0
		l362.53-362.53c11.46-11.45,11.46-30.03,0-41.48C2170.1-658.32,2151.53-658.32,2140.07-646.86z"/>
</g>
<g>
	<path class="st2" d="M-719.39,1028.85c-2.71,15.46-5.92,30.52-9.62,45.18c-21.49,85.09-59.71,156.49-113.61,212.2
		c-84.85,87.7-207.14,136.45-365.7,146.14c56.08,93.09,158.12,155.35,274.72,155.35h0c177.01,0,320.5-143.49,320.5-320.5v0
		C-613.11,1172.57-654.15,1087.52-719.39,1028.85z M-730.44,1439.15h-176.24c-14.59,0-26.43-11.83-26.43-26.43
		c0-14.59,11.83-26.43,26.43-26.43h176.24c14.59,0,26.43,11.83,26.43,26.43C-704.01,1427.32-715.84,1439.15-730.44,1439.15z"/>
	<path class="st2" d="M-873.52,1256.33c70.14-72.5,102.38-166.99,115.11-257.51c-50.35-32.94-110.53-52.1-175.19-52.1h0
		c-177.01,0-320.5,143.49-320.5,320.5v0c0,43.65,8.74,85.26,24.55,123.19c21.09-0.85,41.48-2.39,61.19-4.64
		C-1041.86,1371.34-942.66,1327.79-873.52,1256.33z M-1135.78,1132.06h61.7v-61.7c0-14.59,11.83-26.43,26.43-26.43
		c14.6,0,26.43,11.83,26.43,26.43v61.7h61.7c14.59,0,26.43,11.83,26.43,26.43c0,14.59-11.83,26.43-26.43,26.43h-61.7v61.7
		c0,14.59-11.83,26.43-26.43,26.43c-14.59,0-26.43-11.83-26.43-26.43v-61.7h-61.7c-14.59,0-26.43-11.83-26.43-26.43
		C-1162.2,1143.89-1150.37,1132.06-1135.78,1132.06z"/>
</g>
</svg>
